<?xml version="1.0" encoding="utf-8"?>
<svg xmlns="http://www.w3.org/2000/svg" viewBox="0 0 500 500" xmlns:bx="https://boxy-svg.com">
  <defs>
    <bx:export>
      <bx:file format="svg" href="#object-0"/>
      <bx:file format="svg" path="Untitled 2.svg" width="500" height="500"/>
    </bx:export>
  </defs>
  <path d="M 243.394 451.957 C 247.112 451.957 250.83 451.181 254.224 449.708 L 406.405 387.733 C 424.185 380.519 437.439 363.688 437.359 343.365 C 436.954 266.421 403.981 125.639 264.73 61.648 C 251.234 55.443 235.555 55.443 222.058 61.648 C 82.808 125.639 49.834 266.421 49.43 343.365 C 49.349 363.688 62.603 380.519 80.383 387.733 L 232.645 449.708 C 235.959 451.181 239.677 451.957 243.394 451.957 Z M 243.394 418.526 L 82.646 353.216 C 76.666 350.812 72.302 345.149 72.382 338.401 C 72.706 271.075 101.315 146.117 223.755 89.184 L 243.394 80.031 L 243.394 418.526 Z" style="stroke-width: 1; transform-box: fill-box; transform-origin: 50% 50%; fill: rgb(37, 99, 235);" transform="matrix(-1, 0, 0, -1, 0.000039, 0.000024)" id="object-0"/>
</svg>